<svg id="Слой_1" data-name="Слой 1" xmlns="http://www.w3.org/2000/svg" viewBox="0 0 54.82 64.66"><defs><style>.cls-1{fill:none;stroke:#6698d0;stroke-miterlimit:10}</style></defs><g id="microscope-sciences"><path class="cls-1" d="M128.54 132.36a5.18 5.18 0 0 1 5.17-5.18h43.47a5.17 5.17 0 0 1 5.17 5.18M143 125.11v-5.17a7.24 7.24 0 0 1 7.24-7.24 7.25 7.25 0 0 1 7.25 7.24v5.17" transform="translate(-128.04 -67.69)"/><circle class="cls-1" cx="29.48" cy="21.2" r="7.24"/><circle class="cls-1" cx="29.48" cy="21.2" r="2.07"/><path class="cls-1" d="M143 121.54a18.7 18.7 0 0 1-14.49-18.16 18.68 18.68 0 0 1 17.59-18.6" transform="translate(-128.04 -67.69)"/><path class="cls-1" d="M146.13 113.68a10.38 10.38 0 0 1-9.31-10.3A10.38 10.38 0 0 1 147.17 93h4.14m6.21 26.94h17.59a2.07 2.07 0 0 1 2.07 2.07" transform="translate(-128.04 -67.69)"/><circle class="cls-1" cx="22.23" cy="52.25" r="2.07"/><path class="cls-1" d="M161.66 102.35h-3.11a1 1 0 0 1-1-1v-5.21m-.03-14.49v-5.18a2.07 2.07 0 0 1 2.07-2.07h15.52a2.07 2.07 0 0 1 2.07 2.07v24.84a1 1 0 0 1-1 1h-8.27" transform="translate(-128.04 -67.69)"/><path class="cls-1" d="M35.69 2.57V.5h7.24v6.21M33.62.5H45M32.58 34.65v5.18h13.46v-5.18m-3.11 5.18v7.24h-7.24v-7.24m8.28-25.88v13.46"/></g></svg>