<svg id="Слой_1" data-name="Слой 1" xmlns="http://www.w3.org/2000/svg" viewBox="0 0 61.46 61.46"><defs><style>.cls-1{fill:none;stroke:#6698d0;stroke-miterlimit:10}</style></defs><g id="training_progress_plan" data-name="training progress plan"><g id="_Grupo_" data-name="&lt;Grupo&gt;"><path class="cls-1" d="M160.86 80.75v-3.9a2.93 2.93 0 0 0-2.92-2.93H156v-4.87h-15.62v4.87h-1.95a2.92 2.92 0 0 0-2.92 2.93v3.9z" transform="translate(-125.25 -68.55)"/><path class="cls-1" d="M20 5.38v1.95h5.86V5.38"/><path class="cls-1" d="M149.16 129.51H127.7a2 2 0 0 1-2-1.95V78.8a2 2 0 0 1 2-2h3.9m30.24.05h6.82a2 2 0 0 1 2 2v24.38" transform="translate(-125.25 -68.55)"/><path class="cls-1" d="M8.3 33.66h5.85v5.85H8.3zm0 11.7h5.85v5.85H8.3zm0-20.48l2.93 2.93 3.9-5.86M20 24.88h17.56M20 36.58h9.76M20 48.29h3.91"/></g><g id="barbell"><path class="cls-1" d="M30.73 41.46h3.9V58h-3.9a1 1 0 0 1-1-1V42.43a1 1 0 0 1 1-.97z"/><rect class="cls-1" x="34.63" y="38.53" width="4.88" height="22.43" rx=".98" ry=".98"/><path class="cls-1" d="M56.09 41.46H60a1 1 0 0 1 1 1v14.6a1 1 0 0 1-1 1h-3.9v-16.6h-.01z"/><rect class="cls-1" x="51.21" y="38.53" width="4.88" height="22.43" rx=".98" ry=".98"/><path class="cls-1" d="M50.24 52.19h-9.76m2.93-4.88h6.83"/></g></g></svg>