<svg id="Слой_1" data-name="Слой 1" xmlns="http://www.w3.org/2000/svg" viewBox="0 0 56.89 63.46"><defs><style>.cls-1{fill:none;stroke:#6698d0;stroke-miterlimit:10}</style></defs><path class="cls-1" d="M148 115.06c-.69-10.54-8.85-5.2-9.79-19.53-.6-9 7.81-16.42 17.45-16.42s18.1 7.37 17.46 16.42c-.87 12.22-6.94 9.75-9.16 16.15" transform="translate(-127.25 -67.65)"/><path class="cls-1" d="M21.05 59.99l15.73-4.13m-15.73-1.8l15.73-4.13m-15.73-1.8L36.78 44"/><path class="cls-1" d="M161.31 125.73c0 2.69-2.51 4.88-5.61 4.88a5.88 5.88 0 0 1-4.69-2.19" transform="translate(-127.25 -67.65)"/><path class="cls-1" d="M28.98 0v5.29m19.19 2.02l-3.74 3.74M56.89 27.9H51.6m-4.19 19.73l-3.74-3.74M9.48 7.31l3.74 3.74M0 26.82h5.29m3.43 20.81l3.73-3.74m9.69-13.24l5.74 7.9 8.64-15.25"/></svg>