<svg id="Слой_1" data-name="Слой 1" xmlns="http://www.w3.org/2000/svg" viewBox="0 0 57.58 57.66"><defs><style>.cls-1{fill:none;stroke:#6698d0;stroke-miterlimit:10}</style></defs><path class="cls-1" d="M165 100.05a10.1 10.1 0 1 1-10.1 10.1 10.1 10.1 0 0 1 10.1-10.1z" transform="translate(-126.67 -71.02)"/><path class="cls-1" d="M183 85.61v23.91a2.13 2.13 0 0 1-2.06 2l-5 .21m-21.9 0l-24.84-.21a2.08 2.08 0 0 1-2-2V74.28a2.06 2.06 0 0 1 2-2.06h40.43M183 85.61h-11.29a2.07 2.07 0 0 1-2.06-2.06V72.22L183 85.61zm-48.68-4.44h28.06m-28.06 6.41h28.06M134.36 94h28.06m2.58 11.33a4.82 4.82 0 1 1-4.81 4.82 4.81 4.81 0 0 1 4.81-4.82z" transform="translate(-126.67 -71.02)"/><path class="cls-1" d="M29.57 44.2l-4.68 8.52 8.83 4.3 4.68-7.28 4.68 7.28 8.95-4.27-4.73-9.03"/></svg>